<svg width="42" height="42" viewBox="0 0 42 42" fill="none" xmlns="http://www.w3.org/2000/svg">
<path d="M33.25 31.5H36.75C37.2141 31.5 37.6592 31.3156 37.9874 30.9874C38.3156 30.6593 38.5 30.2141 38.5 29.75V23.3625C38.4993 22.9654 38.3635 22.5803 38.115 22.2705L32.025 14.658C31.8613 14.453 31.6537 14.2875 31.4174 14.1736C31.1811 14.0597 30.9223 14.0004 30.66 14H24.5V30.9874L33.25 31.5Z" fill="#D9D9D9" fill-opacity="0.62" stroke="black" stroke-width="1.2" stroke-linecap="round" stroke-linejoin="round"/>
<path d="M24.5 31.5V10.5C24.5 9.57174 24.1313 8.6815 23.4749 8.02513C22.8185 7.36875 21.9283 7 21 7H7C6.07174 7 5.1815 7.36875 4.52513 8.02513C3.86875 8.6815 3.5 9.57174 3.5 10.5V29.75C3.5 30.2141 3.68437 30.6593 4.01256 30.9874C4.34075 31.3156 4.78587 31.5 5.25 31.5H8.75" fill="#F0B398"/>
<path d="M24.5 31.5V10.5C24.5 9.57174 24.1313 8.6815 23.4749 8.02513C22.8185 7.36875 21.9283 7 21 7H7C6.07174 7 5.1815 7.36875 4.52513 8.02513C3.86875 8.6815 3.5 9.57174 3.5 10.5V29.75C3.5 30.2141 3.68437 30.6592 4.01256 30.9874C4.34075 31.3156 4.78587 31.5 5.25 31.5H8.75" stroke="black" stroke-width="1.2" stroke-linecap="round" stroke-linejoin="round"/>
<path d="M26.25 31.5H15.75" stroke="black" stroke-width="1.2" stroke-linecap="round" stroke-linejoin="round"/>
<path d="M29.75 35C31.683 35 33.25 33.433 33.25 31.5C33.25 29.567 31.683 28 29.75 28C27.817 28 26.25 29.567 26.25 31.5C26.25 33.433 27.817 35 29.75 35Z" fill="#7E7E7E" stroke="black" stroke-width="1.2" stroke-linecap="round" stroke-linejoin="round"/>
<path d="M12.25 35C14.183 35 15.75 33.433 15.75 31.5C15.75 29.567 14.183 28 12.25 28C10.317 28 8.75 29.567 8.75 31.5C8.75 33.433 10.317 35 12.25 35Z" fill="#7E7E7E" stroke="black" stroke-width="1.2" stroke-linecap="round" stroke-linejoin="round"/>
</svg>
