<svg width="42" height="42" viewBox="0 0 42 42" fill="none" xmlns="http://www.w3.org/2000/svg">
<path d="M5.24658 13.1093V19.6735C5.24658 18.6292 5.66142 17.6277 6.39985 16.8893C7.13827 16.1508 8.13979 15.736 9.18408 15.736H32.8091C33.8534 15.736 34.8549 16.1508 35.5933 16.8893C36.3317 17.6277 36.7466 18.6292 36.7466 19.6735V13.1093C36.7466 12.065 36.3317 11.0634 35.5933 10.325C34.8549 9.58659 33.8534 9.17175 32.8091 9.17175H30.1876H11.8126H9.18408C8.13979 9.17175 7.13827 9.58659 6.39985 10.325C5.66142 11.0634 5.24658 12.065 5.24658 13.1093Z" fill="#EB8080"/>
<path fill-rule="evenodd" clip-rule="evenodd" d="M5.24658 19.6735V32.7985C5.24658 33.8428 5.66142 34.8443 6.39985 35.5827C7.13827 36.3212 8.13979 36.736 9.18408 36.736H32.8091C33.8534 36.736 34.8549 36.3212 35.5933 35.5827C36.3317 34.8443 36.7466 33.8428 36.7466 32.7985V19.6735C36.7466 18.6292 36.3317 17.6277 35.5933 16.8893C34.8549 16.1508 33.8534 15.736 32.8091 15.736H9.18408C8.13979 15.736 7.13827 16.1508 6.39985 16.8893C5.66142 17.6277 5.24658 18.6292 5.24658 19.6735ZM21.0088 22.2985H21.0001V22.309H21.0088V22.2985ZM21.0088 30.1735H20.9983V30.184H21.0088V30.1735ZM17.0696 30.1753H17.0626V30.1858H17.0696V30.1753ZM13.1321 30.1753H13.1233H13.1216V30.184H13.1321V30.1753ZM24.9446 26.243H24.9358V26.2518H24.9446V26.243ZM24.9463 30.1753H24.9358V30.1858H24.9463V30.1753ZM28.8838 26.2413H28.8733L28.8751 26.25H28.8838V26.2413Z" fill="#F6F6F6"/>
<path d="M11.8126 5.2395V9.17175M11.8126 9.177V9.17175M30.1876 5.2395V9.17175M30.1876 9.177V9.17175M5.24658 32.802V13.1093M5.24658 13.1093C5.24658 12.065 5.66142 11.0634 6.39985 10.325C7.13827 9.58659 8.13979 9.17175 9.18408 9.17175H11.8126M5.24658 13.1093V19.6735M36.7466 13.1093C36.7466 12.065 36.3317 11.0634 35.5933 10.325C34.8549 9.58659 33.8534 9.17175 32.8091 9.17175H30.1876M36.7466 13.1093V32.7985M36.7466 13.1093V19.6735M36.7466 32.7985C36.7466 33.8428 36.3317 34.8443 35.5933 35.5827C34.8549 36.3212 33.8534 36.736 32.8091 36.736H9.18408C8.13979 36.736 7.13827 36.3212 6.39985 35.5827C5.66142 34.8443 5.24658 33.8428 5.24658 32.7985V19.6735M36.7466 32.7985V19.6735M5.24658 19.6735C5.24658 18.6292 5.66142 17.6277 6.39985 16.8893C7.13827 16.1508 8.13979 15.736 9.18408 15.736H32.8091C33.8534 15.736 34.8549 16.1508 35.5933 16.8893C36.3317 17.6277 36.7466 18.6292 36.7466 19.6735M24.9341 22.2985H28.8716M13.1216 26.236H20.9966M17.0696 30.1753H17.0608H17.0626M17.0696 30.1753V30.1858H17.0626V30.1753M17.0696 30.1753H17.0626M30.1876 9.17175H11.8126M21.0001 22.2985H21.0088V22.309H21.0001V22.2985ZM20.9983 30.1735H21.0088V30.184H20.9983V30.1735ZM13.1233 30.1753H13.1321V30.184H13.1216V30.1753H13.1233ZM24.9358 26.243H24.9446V26.2518H24.9358V26.243ZM24.9358 30.1753H24.9463V30.1858H24.9358V30.1753ZM28.8733 26.2413H28.8838V26.25H28.8751L28.8733 26.2413Z" stroke="black" stroke-width="1.2" stroke-linecap="round" stroke-linejoin="round"/>
</svg>
