<svg width="42" height="42" viewBox="0 0 42 42" fill="none" xmlns="http://www.w3.org/2000/svg">
<path d="M14.4375 36.75V28.2188C14.4375 27.132 15.3195 26.25 16.4062 26.25H20.3438C21.4305 26.25 22.3125 27.132 22.3125 28.2188V36.75H30.1875V17.0625V6.20375L11.8125 12.887L6.5625 14.7957V36.75H14.4375Z" fill="#83C1CC"/>
<path d="M30.1875 17.0625V36.75H35.4375V18.8125L30.1875 17.0625Z" fill="#ADDFE9"/>
<path d="M11.8125 12.887V5.25H6.5625V14.7957L11.8125 12.887Z" fill="#ADDFE9"/>
<path d="M22.3125 36.75V28.2188C22.3125 27.132 21.4305 26.25 20.3438 26.25H16.4062C15.3195 26.25 14.4375 27.132 14.4375 28.2188V36.75H6.5625M22.3125 36.75H30.1875M22.3125 36.75H35.4375M30.1875 36.75V6.20375M30.1875 36.75V17.0625M30.1875 36.75H35.4375M30.1875 6.20375L32.8125 5.25M30.1875 6.20375L11.8125 12.887M30.1875 6.20375V17.0625M35.4375 36.75V18.8125M35.4375 18.8125L30.1875 17.0625M35.4375 18.8125L38.0625 19.6875M3.9375 36.75H6.5625M6.5625 36.75H38.0625M6.5625 36.75V14.7957M3.9375 15.75L6.5625 14.7957M11.8125 12.887V5.25H6.5625V14.7957M11.8125 12.887L6.5625 14.7957" stroke="black" stroke-width="1.2" stroke-linecap="round" stroke-linejoin="round"/>
</svg>
