<svg width="43" height="42" viewBox="0 0 43 42" fill="none" xmlns="http://www.w3.org/2000/svg">
<path d="M23.25 7.98348V36.2582C23.2499 36.524 23.1893 36.7864 23.0727 37.0252C22.9561 37.2641 22.7867 37.4733 22.5772 37.637C22.3677 37.8006 22.1236 37.9143 21.8636 37.9695C21.6036 38.0248 21.3344 38.0201 21.0765 37.9557L9.25 35V9.73348C9.25012 8.95299 9.51111 8.19494 9.99148 7.57981C10.4719 6.96467 11.1441 6.52775 11.9012 6.33848L18.9013 4.58848C19.4171 4.45955 19.9555 4.44982 20.4756 4.56005C20.9957 4.67028 21.4839 4.89755 21.9031 5.22463C22.3223 5.5517 22.6614 5.96998 22.8948 6.4477C23.1282 6.92543 23.2497 7.4518 23.25 7.98348Z" fill="#AB937C" stroke="black" stroke-width="1.2" stroke-linecap="round" stroke-linejoin="round"/>
<path d="M23.25 7H28.5C29.4283 7 30.3185 7.36875 30.9749 8.02513C31.6313 8.6815 32 9.57174 32 10.5V35H23.25V7Z" fill="#453321" stroke="black" stroke-width="1.2" stroke-linecap="round" stroke-linejoin="round"/>
<path d="M4 35H9.25" stroke="black" stroke-width="1.2" stroke-linecap="round" stroke-linejoin="round"/>
<path d="M23.25 35H39" stroke="black" stroke-width="1.2" stroke-linecap="round" stroke-linejoin="round"/>
<path d="M18 21V21.0175" stroke="black" stroke-width="1.2" stroke-linecap="round" stroke-linejoin="round"/>
</svg>
