<svg width="256" height="256" viewBox="0 0 256 256" fill="none" xmlns="http://www.w3.org/2000/svg">
<path d="M32.4531 117.391V149.219C32.4531 152.033 33.5709 154.731 35.5605 156.721C37.5502 158.71 40.2487 159.828 43.0625 159.828H212.812C215.626 159.828 218.325 158.71 220.314 156.721C222.304 154.731 223.422 152.033 223.422 149.219V117.391" fill="#D6AF6B"/>
<path d="M32.4531 117.391V149.219C32.4531 152.033 33.5709 154.731 35.5605 156.721C37.5502 158.71 40.2487 159.828 43.0625 159.828H212.812C215.626 159.828 218.325 158.71 220.314 156.721C222.304 154.731 223.422 152.033 223.422 149.219V117.391" stroke="black" stroke-width="7.275" stroke-linecap="round" stroke-linejoin="round"/>
<path d="M127.938 202.266H43.0625C40.2487 202.266 37.5502 201.148 35.5605 199.158C33.5709 197.169 32.4531 194.47 32.4531 191.656V170.438C32.4531 167.624 33.5709 164.925 35.5605 162.936C37.5502 160.946 40.2487 159.828 43.0625 159.828H212.812C215.626 159.828 218.325 160.946 220.314 162.936C222.304 164.925 223.422 167.624 223.422 170.438V191.656C223.422 194.47 222.304 197.169 220.314 199.158C218.325 201.148 215.626 202.266 212.812 202.266H172.179" fill="#D6AF6B"/>
<path d="M127.938 202.266H43.0625C40.2487 202.266 37.5502 201.148 35.5605 199.158C33.5709 197.169 32.4531 194.47 32.4531 191.656V170.438C32.4531 167.624 33.5709 164.925 35.5605 162.936C37.5502 160.946 40.2487 159.828 43.0625 159.828H212.812C215.626 159.828 218.325 160.946 220.314 162.936C222.304 164.925 223.422 167.624 223.422 170.438V191.656C223.422 194.47 222.304 197.169 220.314 199.158C218.325 201.148 215.626 202.266 212.812 202.266H172.179" stroke="black" stroke-width="7.275" stroke-linecap="round" stroke-linejoin="round"/>
<path d="M32.4531 117.391L114.888 53.3106C118.616 50.4027 123.209 48.8234 127.938 48.8234C132.666 48.8234 137.259 50.4027 140.987 53.3106L223.422 117.391H32.4531Z" fill="#F4E4C8" stroke="black" stroke-width="7.275" stroke-linecap="round" stroke-linejoin="round"/>
<path d="M138.229 210.435L74.8906 159.828H207.508L167.723 207.57C164.152 211.801 159.069 214.469 153.558 215.004C148.048 215.539 142.547 213.899 138.229 210.435Z" fill="#FFF177" stroke="black" stroke-width="7.275" stroke-linecap="round" stroke-linejoin="round"/>
</svg>
