<svg width="42" height="42" viewBox="0 0 42 42" fill="none" xmlns="http://www.w3.org/2000/svg">
<path d="M18.375 16.4062C18.375 16.8371 18.2901 17.2638 18.1252 17.6619C17.9603 18.06 17.7186 18.4218 17.4139 18.7264C17.1093 19.0311 16.7475 19.2728 16.3494 19.4377C15.9513 19.6026 15.5246 19.6875 15.0938 19.6875C14.6629 19.6875 14.2362 19.6026 13.8381 19.4377C13.44 19.2728 13.0782 19.0311 12.7736 18.7264C12.4689 18.4218 12.2272 18.06 12.0623 17.6619C11.8974 17.2638 11.8125 16.8371 11.8125 16.4062C11.8125 15.536 12.1582 14.7014 12.7736 14.0861C13.3889 13.4707 14.2235 13.125 15.0938 13.125C15.964 13.125 16.7986 13.4707 17.4139 14.0861C18.0293 14.7014 18.375 15.536 18.375 16.4062Z" fill="#2E7CF6"/>
<path d="M20.6395 27.4942C18.932 28.4037 17.0266 28.878 15.092 28.875C13.1586 28.8774 11.2544 28.4032 9.548 27.4942C9.965 26.3589 10.7204 25.3789 11.7122 24.6867C12.7039 23.9944 13.8843 23.6232 15.0938 23.6232C16.3032 23.6232 17.4836 23.9944 18.4753 24.6867C19.4671 25.3789 20.2225 26.3589 20.6395 27.4942Z" fill="#2E7CF6"/>
<path fill-rule="evenodd" clip-rule="evenodd" d="M7.875 34.125H34.125C35.1693 34.125 36.1708 33.7102 36.9092 32.9717C37.6477 32.2333 38.0625 31.2318 38.0625 30.1875V11.8125C38.0625 10.7682 37.6477 9.76669 36.9092 9.02827C36.1708 8.28984 35.1693 7.875 34.125 7.875H7.875C6.83071 7.875 5.82919 8.28984 5.09077 9.02827C4.35234 9.76669 3.9375 10.7682 3.9375 11.8125V30.1875C3.9375 31.2318 4.35234 32.2333 5.09077 32.9717C5.82919 33.7102 6.83071 34.125 7.875 34.125ZM18.1252 17.6619C18.2901 17.2638 18.375 16.8371 18.375 16.4062C18.375 15.536 18.0293 14.7014 17.4139 14.0861C16.7986 13.4707 15.964 13.125 15.0938 13.125C14.2235 13.125 13.3889 13.4707 12.7736 14.0861C12.1582 14.7014 11.8125 15.536 11.8125 16.4062C11.8125 16.8371 11.8974 17.2638 12.0623 17.6619C12.2272 18.06 12.4689 18.4218 12.7736 18.7264C13.0782 19.0311 13.44 19.2728 13.8381 19.4377C14.2362 19.6026 14.6629 19.6875 15.0938 19.6875C15.5246 19.6875 15.9513 19.6026 16.3494 19.4377C16.7475 19.2728 17.1093 19.0311 17.4139 18.7264C17.7186 18.4218 17.9603 18.06 18.1252 17.6619ZM15.092 28.875C17.0266 28.878 18.932 28.4037 20.6395 27.4942C20.2225 26.3589 19.4671 25.3789 18.4753 24.6867C17.4836 23.9944 16.3032 23.6232 15.0938 23.6232C13.8843 23.6232 12.7039 23.9944 11.7122 24.6867C10.7204 25.3789 9.965 26.3589 9.548 27.4942C11.2544 28.4032 13.1586 28.8774 15.092 28.875Z" fill="#D2E3FF"/>
<path d="M26.25 15.75H32.8125M26.25 21H32.8125M26.25 26.25H32.8125M7.875 34.125H34.125C35.1693 34.125 36.1708 33.7102 36.9092 32.9717C37.6477 32.2333 38.0625 31.2318 38.0625 30.1875V11.8125C38.0625 10.7682 37.6477 9.76669 36.9092 9.02827C36.1708 8.28984 35.1693 7.875 34.125 7.875H7.875C6.83071 7.875 5.82919 8.28984 5.09077 9.02827C4.35234 9.76669 3.9375 10.7682 3.9375 11.8125V30.1875C3.9375 31.2318 4.35234 32.2333 5.09077 32.9717C5.82919 33.7102 6.83071 34.125 7.875 34.125ZM18.375 16.4062C18.375 16.8371 18.2901 17.2638 18.1252 17.6619C17.9603 18.06 17.7186 18.4218 17.4139 18.7264C17.1093 19.0311 16.7475 19.2728 16.3494 19.4377C15.9513 19.6026 15.5246 19.6875 15.0938 19.6875C14.6629 19.6875 14.2362 19.6026 13.8381 19.4377C13.44 19.2728 13.0782 19.0311 12.7736 18.7264C12.4689 18.4218 12.2272 18.06 12.0623 17.6619C11.8974 17.2638 11.8125 16.8371 11.8125 16.4062C11.8125 15.536 12.1582 14.7014 12.7736 14.0861C13.3889 13.4707 14.2235 13.125 15.0938 13.125C15.964 13.125 16.7986 13.4707 17.4139 14.0861C18.0293 14.7014 18.375 15.536 18.375 16.4062ZM20.6395 27.4942C18.932 28.4037 17.0266 28.878 15.092 28.875C13.1586 28.8774 11.2544 28.4032 9.548 27.4942C9.965 26.3589 10.7204 25.3789 11.7122 24.6867C12.7039 23.9944 13.8843 23.6232 15.0938 23.6232C16.3032 23.6232 17.4836 23.9944 18.4753 24.6867C19.4671 25.3789 20.2225 26.3589 20.6395 27.4942Z" stroke="black" stroke-width="1.2" stroke-linecap="round" stroke-linejoin="round"/>
</svg>
