<svg width="52" height="58" viewBox="0 0 52 58" fill="none" xmlns="http://www.w3.org/2000/svg">
<path d="M30.6248 33.5H20.4165" stroke="black" stroke-width="1.2" stroke-linecap="round" stroke-linejoin="round"/>
<path d="M30.6248 25.3334H20.4165" stroke="black" stroke-width="1.2" stroke-linecap="round" stroke-linejoin="round"/>
<path d="M38.7915 43.7083V19.2083C38.7915 18.1254 38.3613 17.0868 37.5955 16.321C36.8297 15.5552 35.7911 15.125 34.7082 15.125H8.1665" stroke="black" stroke-width="1.2" stroke-linecap="round" stroke-linejoin="round"/>
<path d="M16.3335 51.875H40.8335C41.9165 51.875 42.9551 51.4448 43.7208 50.679C44.4866 49.9132 44.9168 48.8746 44.9168 47.7917V45.75C44.9168 45.2085 44.7017 44.6892 44.3188 44.3063C43.936 43.9234 43.4166 43.7083 42.8752 43.7083H22.4585C21.917 43.7083 21.3977 43.9234 21.0148 44.3063C20.6319 44.6892 20.4168 45.2085 20.4168 45.75V47.7917C20.4168 48.8746 19.9866 49.9132 19.2208 50.679C18.4551 51.4448 17.4165 51.875 16.3335 51.875Z" fill="#E2E2E2"/>
<path d="M12.2502 25.3333V19.2083C12.2502 18.1254 11.82 17.0868 11.0542 16.321C10.2884 15.5552 9.2498 15.125 8.16683 15.125C7.08386 15.125 6.04525 15.5552 5.27948 16.321C4.5137 17.0868 4.0835 18.1254 4.0835 19.2083V23.2917C4.0835 23.8332 4.2986 24.3525 4.68149 24.7353C5.06437 25.1182 5.58368 25.3333 6.12516 25.3333H12.2502Z" fill="#BEBEBE"/>
<path d="M16.3335 51.875H40.8335C41.9165 51.875 42.9551 51.4448 43.7208 50.679C44.4866 49.9132 44.9168 48.8746 44.9168 47.7917V45.75C44.9168 45.2085 44.7017 44.6892 44.3188 44.3063C43.936 43.9234 43.4166 43.7083 42.8752 43.7083H22.4585C21.917 43.7083 21.3977 43.9234 21.0148 44.3063C20.6319 44.6892 20.4168 45.2085 20.4168 45.75V47.7917C20.4168 48.8746 19.9866 49.9132 19.2208 50.679C18.4551 51.4448 17.4165 51.875 16.3335 51.875ZM16.3335 51.875C15.2505 51.875 14.2119 51.4448 13.4461 50.679C12.6804 49.9132 12.2502 48.8746 12.2502 47.7917V19.2083M12.2502 19.2083C12.2502 18.1254 11.82 17.0868 11.0542 16.321C10.2884 15.5552 9.2498 15.125 8.16683 15.125C7.08386 15.125 6.04525 15.5552 5.27948 16.321C4.5137 17.0868 4.0835 18.1254 4.0835 19.2083V23.2917C4.0835 23.8332 4.2986 24.3525 4.68149 24.7353C5.06437 25.1182 5.58368 25.3333 6.12516 25.3333H12.2502V19.2083Z" stroke="black" stroke-width="1.2" stroke-linecap="round" stroke-linejoin="round"/>
<g clip-path="url(#clip0_130_2135)">
<path d="M26.841 22.6318C28.7517 24.2468 30.5544 25.9872 32.237 27.842C35.6663 26.6213 39.2053 25.7335 42.8048 25.1909C43.349 22.774 43.7655 20.3302 44.0526 17.8695C40.7783 18.1266 37.5301 18.6556 34.3438 19.4517C32.757 18.0121 31.0938 16.6604 29.3618 15.4022C29.2471 15.4383 29.1325 15.4747 29.018 15.5113L28.4 17.9724C28.6251 18.029 28.8185 18.1726 28.9377 18.3717C29.0569 18.5708 29.0921 18.8091 29.0356 19.0342C28.9791 19.2593 28.8355 19.4527 28.6364 19.5719C28.4372 19.6911 28.1989 19.7263 27.9738 19.6698L27.7608 20.5184C27.5732 21.27 27.262 21.9841 26.841 22.6318Z" fill="#38466F"/>
<path d="M26.5352 13.4709C25.6257 15.7753 24.8383 18.126 24.1762 20.5133C25.0859 21.193 25.9745 21.8995 26.841 22.6318C27.262 21.9841 27.5732 21.27 27.7608 20.5184L27.9738 19.6698C27.7488 19.6132 27.5554 19.4696 27.4362 19.2705C27.317 19.0714 27.2818 18.8331 27.3383 18.608C27.3948 18.3829 27.5384 18.1895 27.7375 18.0703C27.9367 17.9511 28.175 17.9159 28.4 17.9724L29.018 15.5113C29.1325 15.4747 29.2471 15.4383 29.3618 15.4022C28.4387 14.7317 27.4962 14.0874 26.5352 13.4709Z" fill="#38466F"/>
<path d="M26.5352 13.4709C26.5351 13.471 26.5352 13.4708 26.5352 13.4709C27.4962 14.0874 28.4387 14.7317 29.3618 15.4022C31.0938 16.6604 32.757 18.0121 34.3438 19.4517C37.5301 18.6556 40.7783 18.1266 44.0526 17.8695C45.1262 17.7854 46.2071 17.7297 47.2915 17.7036C44.2488 14.1877 40.8628 10.9842 37.1839 8.14079C32.598 8.90935 28.1002 10.1336 23.7574 11.7955C24.6981 12.3284 25.624 12.8869 26.534 13.4706C26.5344 13.4708 26.5348 13.4707 26.5352 13.4709Z" fill="#A5ABC0"/>
<path d="M26.5352 13.4709C25.6257 15.7753 24.8383 18.126 24.1762 20.5133C25.0859 21.193 25.9745 21.8995 26.841 22.6318M26.5352 13.4709C27.4962 14.0874 28.4387 14.7317 29.3618 15.4022M26.5352 13.4709C26.5352 13.4708 26.5351 13.471 26.5352 13.4709ZM26.5352 13.4709C26.5348 13.4707 26.5344 13.4708 26.534 13.4706M44.0526 17.8695C43.7655 20.3302 43.349 22.774 42.8048 25.1909C39.2053 25.7335 35.6663 26.6213 32.237 27.842C30.5544 25.9872 28.7517 24.2468 26.841 22.6318M44.0526 17.8695C45.1262 17.7854 46.2071 17.7297 47.2915 17.7036C44.2488 14.1877 40.8628 10.9842 37.1839 8.14079C32.598 8.90935 28.1002 10.1336 23.7574 11.7955C24.6981 12.3284 25.624 12.8869 26.534 13.4706M44.0526 17.8695C40.7783 18.1266 37.5301 18.6556 34.3438 19.4517C32.757 18.0121 31.0938 16.6604 29.3618 15.4022M26.534 13.4706C27.4954 14.0873 28.4384 14.7315 29.3618 15.4022M27.9738 19.6698C28.1989 19.7263 28.4372 19.6911 28.6364 19.5719C28.8355 19.4527 28.9791 19.2593 29.0356 19.0342C29.0921 18.8091 29.0569 18.5708 28.9377 18.3717C28.8185 18.1726 28.6251 18.029 28.4 17.9724M27.9738 19.6698C27.7488 19.6132 27.5554 19.4696 27.4362 19.2705C27.317 19.0714 27.2818 18.8331 27.3383 18.608C27.3948 18.3829 27.5384 18.1895 27.7375 18.0703C27.9367 17.9511 28.175 17.9159 28.4 17.9724M27.9738 19.6698L29.018 15.5113M27.9738 19.6698L27.7608 20.5184M28.4 17.9724L29.018 15.5113M29.018 15.5113C29.1325 15.4747 29.2471 15.4383 29.3618 15.4022M35.7775 13.7419C33.6118 14.1853 31.4705 14.7394 29.3618 15.4022M24.5671 24.8203C25.3566 24.349 26.0452 23.7264 26.5933 22.9881C26.6796 22.8718 26.7622 22.753 26.841 22.6318M27.7608 20.5184L28.1869 18.8211M27.7608 20.5184C27.5732 21.27 27.262 21.9841 26.841 22.6318" stroke="black" stroke-width="1.2" stroke-linecap="round" stroke-linejoin="round"/>
</g>
<defs>
<clipPath id="clip0_130_2135">
<rect width="28" height="28" fill="white" transform="translate(24.5977 0.778809) rotate(14.0954)"/>
</clipPath>
</defs>
</svg>
