<svg width="256" height="255" viewBox="0 0 256 255" fill="none" xmlns="http://www.w3.org/2000/svg">
<path d="M108.496 149.639C106.485 153.051 103.627 155.885 100.198 157.867L122.218 145.155L152.794 127.501L235.484 79.7586L226.965 77.4776C218.324 75.1653 209.207 75.327 200.653 77.9444L144.158 95.2164C135.57 97.8402 127.942 102.927 122.218 109.847C117.948 115.001 114.856 121.026 113.158 127.501C112.245 131.002 111.726 134.641 111.672 138.375C111.604 142.341 110.51 146.222 108.496 149.639Z" fill="#D9D9D9"/>
<path d="M235.484 175.243L152.794 127.501L122.218 145.155C127.942 152.074 135.571 157.161 144.158 159.785L200.664 177.068C209.218 179.682 218.335 179.84 226.975 177.524L235.484 175.243Z" fill="#919191"/>
<path d="M83.8865 87.7156L100.182 97.1261M83.8865 87.7156C81.8119 91.3646 79.0359 94.5671 75.7186 97.1389C72.4012 99.7106 68.6079 101.601 64.557 102.701C60.5062 103.8 56.2778 104.088 52.1153 103.547C47.9528 103.006 43.9385 101.647 40.3034 99.5482C36.6683 97.4494 33.4842 94.6523 30.9345 91.3179C28.3848 87.9835 26.5198 84.1778 25.4469 80.1197C24.374 76.0617 24.1144 71.8315 24.6831 67.6727C25.2517 63.5139 26.6373 59.5086 28.7602 55.8875C33.0108 48.6368 39.9569 43.3618 48.0825 41.2135C56.208 39.0653 64.8535 40.2182 72.1322 44.4206C79.4109 48.6231 84.7319 55.534 86.934 63.6451C89.1361 71.7563 88.0406 80.4092 83.8865 87.7156ZM100.182 97.1261C103.62 99.1087 106.485 101.948 108.499 105.367C110.512 108.787 111.606 112.669 111.672 116.637C111.726 120.361 112.245 124.01 113.158 127.501M100.182 97.1261L122.218 109.847M113.158 127.501C112.245 131.002 111.726 134.641 111.672 138.375C111.604 142.341 110.51 146.222 108.496 149.639C106.485 153.051 103.627 155.885 100.198 157.867M113.158 127.501C114.856 121.026 117.948 115.001 122.218 109.847M122.218 109.847C127.942 102.927 135.57 97.8402 144.158 95.2164L200.653 77.9444C209.207 75.327 218.324 75.1653 226.965 77.4776L235.484 79.7586L152.794 127.501M83.8865 167.286L100.182 157.875L100.198 157.867M83.8865 167.286C86.0094 170.907 87.395 174.912 87.9636 179.071C88.5323 183.23 88.2727 187.46 87.1998 191.518C86.1269 195.576 84.2619 199.382 81.7122 202.716C79.1625 206.051 75.9784 208.848 72.3433 210.947C68.7082 213.045 64.6939 214.404 60.5314 214.945C56.3689 215.486 52.1405 215.199 48.0896 214.099C44.0388 212.999 40.2455 211.109 36.9281 208.537C33.6107 205.966 30.8348 202.763 28.7602 199.114C24.6061 191.808 23.5106 183.155 25.7127 175.044C27.9148 166.932 33.2358 160.022 40.5145 155.819C47.7932 151.617 56.4386 150.464 64.5642 152.612C72.6898 154.76 79.6358 160.035 83.8865 167.286ZM122.218 145.155C127.942 152.074 135.571 157.161 144.158 159.785L200.664 177.068C209.218 179.682 218.335 179.84 226.975 177.524L235.484 175.243L152.794 127.501M122.218 145.155L152.794 127.501M122.218 145.155L100.198 157.867" stroke="black" stroke-width="7.275" stroke-linecap="round" stroke-linejoin="round"/>
</svg>
