<svg width="42" height="42" viewBox="0 0 42 42" fill="none" xmlns="http://www.w3.org/2000/svg">
<path d="M13.1248 5.25C13.1248 5.25 15.7498 12.25 20.9998 12.25C27.9998 12.25 28.8748 5.25 28.8748 5.25C28.8748 5.25 24.4998 7 20.9998 7C17.4998 7 13.1248 5.25 13.1248 5.25Z" fill="#606C38"/>
<path d="M13.1248 5.25L3.49976 10.5L5.24976 17.5L10.4998 16.625V35C10.4998 35.9665 11.2832 36.75 12.2498 36.75H29.7498C30.7163 36.75 31.4998 35.9665 31.4998 35V16.625L36.7498 17.5L38.4998 10.5L28.8748 5.25C28.8748 5.25 27.9998 12.25 20.9998 12.25C15.7498 12.25 13.1248 5.25 13.1248 5.25Z" fill="#8B995C"/>
<path d="M13.1248 5.25L3.49976 10.5L5.24976 17.5L10.4998 16.625V35C10.4998 35.9665 11.2832 36.75 12.2498 36.75H29.7498C30.7163 36.75 31.4998 35.9665 31.4998 35V16.625L36.7498 17.5L38.4998 10.5L28.8748 5.25M13.1248 5.25C13.1248 5.25 15.7498 12.25 20.9998 12.25C27.9998 12.25 28.8748 5.25 28.8748 5.25M13.1248 5.25C13.1248 5.25 17.4998 7 20.9998 7C24.4998 7 28.8748 5.25 28.8748 5.25" stroke="black" stroke-width="1.2" stroke-linecap="round" stroke-linejoin="round"/>
</svg>
