<svg width="49" height="49" viewBox="0 0 49 49" fill="none" xmlns="http://www.w3.org/2000/svg">
<path d="M39.8125 29.0938V23.7344C39.8125 21.9069 39.0865 20.1542 37.7943 18.862C36.502 17.5697 34.7494 16.8438 32.9219 16.8438H29.8594C29.2502 16.8438 28.666 16.6018 28.2352 16.171C27.8045 15.7403 27.5625 15.156 27.5625 14.5469V11.4844C27.5625 9.65687 26.8365 7.90421 25.5443 6.61197C24.252 5.31972 22.4994 4.59375 20.6719 4.59375H16.8438H11.4844C10.2165 4.59375 9.1875 5.62275 9.1875 6.89062V42.1094C9.1875 43.3773 10.2165 44.4062 11.4844 44.4062H37.5156C38.7835 44.4062 39.8125 43.3773 39.8125 42.1094V29.0938Z" fill="#F6F6F6"/>
<path d="M37.7943 18.862C39.0865 20.1542 39.8125 21.9069 39.8125 23.7344V22.9688C39.8125 18.0954 37.8766 13.4216 34.4306 9.97566C30.9846 6.52968 26.3109 4.59375 21.4375 4.59375H20.6719C22.4994 4.59375 24.252 5.31972 25.5443 6.61197C26.8365 7.90421 27.5625 9.65687 27.5625 11.4844V14.5469C27.5625 15.156 27.8045 15.7403 28.2352 16.171C28.666 16.6018 29.2502 16.8438 29.8594 16.8438H32.9219C34.7494 16.8438 36.502 17.5697 37.7943 18.862Z" fill="#C7C7C7"/>
<path d="M39.8125 23.7344V29.0938V42.1094M39.8125 23.7344C39.8125 21.9069 39.0865 20.1542 37.7943 18.862C36.502 17.5697 34.7494 16.8438 32.9219 16.8438H29.8594C29.2502 16.8438 28.666 16.6018 28.2352 16.171C27.8045 15.7403 27.5625 15.156 27.5625 14.5469V11.4844C27.5625 9.65687 26.8365 7.90421 25.5443 6.61197C24.252 5.31972 22.4994 4.59375 20.6719 4.59375M39.8125 23.7344V22.9688M20.6719 4.59375H16.8438H11.4844M20.6719 4.59375H21.4375M16.8438 30.625H32.1562M16.8438 36.75H24.5M21.4375 4.59375H11.4844M21.4375 4.59375C26.3109 4.59375 30.9846 6.52968 34.4306 9.97566C37.8766 13.4216 39.8125 18.0954 39.8125 22.9688M11.4844 4.59375C10.2165 4.59375 9.1875 5.62275 9.1875 6.89062V42.1094C9.1875 43.3773 10.2165 44.4062 11.4844 44.4062H37.5156C38.7835 44.4062 39.8125 43.3773 39.8125 42.1094M39.8125 42.1094V22.9688" stroke="black" stroke-width="1.2" stroke-linecap="round" stroke-linejoin="round"/>
</svg>
