<svg width="42" height="42" viewBox="0 0 42 42" fill="none" xmlns="http://www.w3.org/2000/svg">
<path d="M24.5 7H29.75C30.2141 7 30.6592 7.18437 30.9874 7.51256C31.3156 7.84075 31.5 8.28587 31.5 8.75V12.25C31.5 12.7141 31.3156 13.1592 30.9874 13.4874C30.6592 13.8156 30.2141 14 29.75 14H24.5" fill="#ADDFE9"/>
<path d="M24.5 7H29.75C30.2141 7 30.6592 7.18437 30.9874 7.51256C31.3156 7.84075 31.5 8.28587 31.5 8.75V12.25C31.5 12.7141 31.3156 13.1592 30.9874 13.4874C30.6592 13.8156 30.2141 14 29.75 14H24.5" stroke="black" stroke-width="1.2" stroke-linecap="round" stroke-linejoin="round"/>
<path d="M24.5 15.75C24.5 16.8 23.8 17.5 22.75 17.5H7C6.07174 17.5 5.1815 17.1313 4.52513 16.4749C3.86875 15.8185 3.5 14.9283 3.5 14V7C3.5 6.07174 3.86875 5.1815 4.52513 4.52513C5.1815 3.86875 6.07174 3.5 7 3.5H22.75C23.8 3.5 24.5 4.2 24.5 5.25V15.75Z" fill="#83C1CC" stroke="black" stroke-width="1.2" stroke-linecap="round" stroke-linejoin="round"/>
<path d="M31.5 10.5H38.5" stroke="black" stroke-width="1.2" stroke-linecap="round" stroke-linejoin="round"/>
<path d="M21 17.5V22.75C21 23.8 20.3 24.5 19.25 24.5H14" stroke="black" stroke-width="1.2" stroke-linecap="round" stroke-linejoin="round"/>
<path d="M8.75 17.5L5.25 31.5H12.25L15.75 17.5H8.75Z" fill="#ADDFE9" stroke="black" stroke-width="1.2" stroke-linecap="round" stroke-linejoin="round"/>
<path d="M8.75 38.5C5.775 38.5 3.5 36.225 3.5 33.25C3.5 32.2 4.2 31.5 5.25 31.5H17.5C18.55 31.5 19.25 32.2 19.25 33.25V36.75C19.25 37.8 18.55 38.5 17.5 38.5H8.75Z" fill="#ADDFE9" stroke="black" stroke-width="1.2" stroke-linecap="round" stroke-linejoin="round"/>
</svg>
