<svg width="50" height="49" viewBox="0 0 50 49" fill="none" xmlns="http://www.w3.org/2000/svg">
<path d="M5 40L5.5 37.5L6.5 35.4999L22.5 22.4999L26 19.4999L26.5 15.9999V13.4999V11.4999L28.5 7.99991L31.5 5.49991L35 4.49991L39.5 5.49991L33 11.4999V12.4999L34 14.9999L36.5 16.4999H38L43.5 11C44.1667 10.3333 45.4 10.1 45 14.5C44.6 18.9 40.1667 22 38 23H35.5H32L30 23.5L27.5 26.5L17.5 39L13.5 43L11 44.5L7 43.5L6 42.5L5.5 41L5 40Z" fill="#C0C0C0"/>
<path d="M23.816 30.9721L35.7189 42.875C36.7397 43.8632 38.108 44.4106 39.5288 44.399C40.9495 44.3875 42.3088 43.818 43.3135 42.8133C44.3181 41.8087 44.8876 40.4494 44.8992 39.0287C44.9107 37.6079 44.3633 36.2396 43.3751 35.2188L31.3783 23.2219C30.4228 23.5077 29.5592 24.0018 28.912 24.7858L23.816 30.9721Z" fill="#FFC14D"/>
<path d="M12.5643 15.3125L20.9474 23.6956L24.5101 20.7617L15.8126 12.0642V9.1875L8.15637 4.59375L5.09387 7.65625L9.68762 15.3125H12.5643Z" fill="#CFCFCF"/>
<path d="M23.816 30.9721L35.7189 42.875C36.7397 43.8632 38.108 44.4106 39.5288 44.399C40.9495 44.3875 42.3088 43.818 43.3135 42.8133C44.3181 41.8087 44.8876 40.4494 44.8992 39.0287C44.9107 37.6079 44.3633 36.2396 43.3751 35.2188M23.816 30.9721L28.912 24.7858C29.5592 24.0018 30.4228 23.5077 31.3783 23.2219M23.816 30.9721L14.312 42.5136C13.8514 43.0751 13.2783 43.5339 12.6297 43.8605C11.981 44.1871 11.2712 44.3743 10.5458 44.41C9.82043 44.4457 9.09563 44.3292 8.41805 44.0678C7.74046 43.8065 7.1251 43.4062 6.61157 42.8926C6.09804 42.3791 5.69773 41.7637 5.43639 41.0862C5.17505 40.4086 5.05848 39.6838 5.09418 38.9584C5.12988 38.233 5.31706 37.5232 5.64368 36.8746C5.97029 36.2259 6.4291 35.6528 6.99057 35.1922L20.9495 23.6976L12.5643 15.3125M43.3751 35.2188L31.3762 23.2199M43.3751 35.2188L31.3783 23.2219M31.3783 23.2219C32.5012 22.8871 33.7527 22.8381 34.9369 22.9361C36.5331 23.0732 38.1375 22.7904 39.5907 22.116C41.0439 21.4415 42.2955 20.3988 43.2213 19.0912C44.1471 17.7837 44.7148 16.2568 44.8682 14.662C45.0216 13.0673 44.7554 11.4601 44.0958 10.0001L37.4073 16.6906C36.2883 16.4319 35.2644 15.8641 34.4523 15.0519C33.6401 14.2398 33.0723 13.2159 32.8136 12.0969L39.5021 5.40837C38.042 4.74884 36.4349 4.48257 34.8401 4.63598C33.2454 4.78939 31.7185 5.35715 30.4109 6.28292C29.1034 7.20869 28.0606 8.46029 27.3862 9.91351C26.7117 11.3667 26.429 12.9711 26.5661 14.5673C26.7519 16.7641 26.4211 19.1896 24.7204 20.5902L24.5122 20.7638M12.5643 15.3125H9.68762L5.09387 7.65625L8.15637 4.59375L15.8126 9.1875V12.0642L24.5101 20.7617L20.9474 23.6956L12.5643 15.3125ZM38.0157 37.5156L32.6564 32.1563M10.4369 39.0469H10.4532V39.0632H10.4369V39.0469Z" stroke="black" stroke-width="1.2" stroke-linecap="round" stroke-linejoin="round"/>
</svg>
