<svg width="62" height="34" viewBox="0 0 62 34" fill="none" xmlns="http://www.w3.org/2000/svg">
<g clip-path="url(#clip0_1_23220)">
<path d="M39.8655 8.24929L20.4321 13.0025C20.1207 13.0786 19.8647 13.2994 19.7437 13.5963L18.9173 15.6229L20.0135 20.1045L23.7875 19.1814L28.1506 18.1142L34.5622 16.546L39.7717 15.2718L41.1925 13.6744L39.8655 8.24929Z" fill="#D9D9D9"/>
<path d="M39.8655 8.24929L41.1925 13.6744L46.3743 12.407C46.9108 12.2758 47.2393 11.7345 47.1081 11.198L46.9996 10.7541L46.2496 7.68777C46.1221 7.16669 45.5964 6.84759 45.0753 6.97504L39.8655 8.24929Z" fill="#919191"/>
<path d="M52.2741 6.91719C52.0447 6.55342 51.6084 6.37706 51.1907 6.47923L46.2496 7.68777L46.9996 10.7541L53.6656 9.12371L52.2741 6.91719Z" fill="#4F4F4F"/>
<path d="M20.0135 20.1045L18.9173 15.6229L11.3812 17.466C11.2122 17.5073 11.0353 17.5039 10.868 17.4559L9.5254 17.0709C9.34 17.0177 9.14318 17.0193 8.95865 17.0754L2.01352 19.1887C1.41598 19.3705 1.1295 20.0495 1.4162 20.6044L3.78206 25.1834C4.01397 25.6322 4.54426 25.8376 5.01799 25.662L20.0135 20.1045Z" fill="#B1B1B1"/>
<path d="M23.7875 19.1814L24.5375 22.2478L28.9006 21.1806L28.1506 18.1142L23.7875 19.1814Z" fill="#D9D9D9"/>
<path d="M35.3122 19.6124C34.9727 18.6955 34.9083 17.9613 34.5622 16.546L28.1506 18.1142L28.9006 21.1806L35.3122 19.6124Z" fill="#A7A7A7"/>
<path d="M45.5188 22.7238C45.6946 22.111 45.2548 21.4966 44.6364 21.3415C41.5285 20.5621 39.7559 17.7206 39.7717 15.2718L34.5622 16.546C34.9083 17.9613 34.9727 18.6955 35.3122 19.6124C35.9114 22.0624 40.0926 25.1964 44.0781 25.3084C44.5 25.3203 44.8589 25.0253 44.9752 24.6195L45.5188 22.7238Z" fill="#D9D9D9"/>
<path d="M24.5375 22.2478L23.7875 19.1814L20.0135 20.1045L20.7189 22.9886C20.7483 23.109 20.7551 23.2339 20.7389 23.3569L20.3059 26.6402C20.2247 27.2562 20.719 27.7964 21.3398 27.77L23.0164 27.6987C23.5042 27.678 23.9057 27.308 23.9662 26.8235L24.5375 22.2478Z" fill="#676767"/>
<path d="M39.8655 8.24929L20.4321 13.0025C20.1207 13.0786 19.8647 13.2994 19.7437 13.5963L18.9173 15.6229M39.8655 8.24929L41.1925 13.6744M39.8655 8.24929L45.0753 6.97504C45.5964 6.84759 46.1221 7.16669 46.2496 7.68777V7.68777M41.1925 13.6744L39.7717 15.2718M41.1925 13.6744L46.3743 12.407C46.9108 12.2758 47.2393 11.7345 47.1081 11.198L46.9996 10.7541M39.7717 15.2718C39.7559 17.7206 41.5285 20.5621 44.6364 21.3415C45.2548 21.4966 45.6946 22.111 45.5188 22.7238L44.9752 24.6195C44.8589 25.0253 44.5 25.3203 44.0781 25.3084C40.0926 25.1964 35.9114 22.0624 35.3122 19.6124M39.7717 15.2718L34.5622 16.546M20.0135 20.1045L18.9173 15.6229M20.0135 20.1045L23.7875 19.1814M20.0135 20.1045L20.7189 22.9886C20.7483 23.109 20.7551 23.2339 20.7389 23.3569L20.3059 26.6402C20.2247 27.2562 20.719 27.7964 21.3398 27.77L23.0164 27.6987C23.5042 27.678 23.9057 27.308 23.9662 26.8235L24.5375 22.2478M20.0135 20.1045L5.01799 25.662C4.54426 25.8376 4.01397 25.6322 3.78206 25.1834L1.4162 20.6044C1.1295 20.0495 1.41598 19.3705 2.01352 19.1887L8.95865 17.0754C9.14317 17.0193 9.34 17.0177 9.5254 17.0709L10.868 17.4559C11.0353 17.5039 11.2122 17.5073 11.3812 17.466L18.9173 15.6229M46.2496 7.68777L51.1907 6.47923C51.6084 6.37706 52.0447 6.55342 52.2741 6.91719L53.6656 9.12371M46.2496 7.68777L46.9996 10.7541M53.6656 9.12371L46.9996 10.7541M53.6656 9.12371L58.2805 7.99495M59.477 7.70231L58.2805 7.99495M58.2805 7.99495L58.0498 7.05145M34.5622 16.546C34.9083 17.9613 34.9727 18.6955 35.3122 19.6124M34.5622 16.546L28.1506 18.1142M35.3122 19.6124L28.9006 21.1806M24.5375 22.2478L23.7875 19.1814M24.5375 22.2478L28.9006 21.1806M23.7875 19.1814L28.1506 18.1142M28.1506 18.1142L28.9006 21.1806" stroke="black" stroke-width="1.2" stroke-linecap="round"/>
</g>
<defs>
<clipPath id="clip0_1_23220">
<rect width="62" height="34" fill="white"/>
</clipPath>
</defs>
</svg>
