<svg width="256" height="255" viewBox="0 0 256 255" fill="none" xmlns="http://www.w3.org/2000/svg">
<path d="M64.2812 37.3201L41.0705 111.585H214.805L191.594 37.3201L184.325 36.7144C146.799 33.5872 109.076 33.5872 71.5496 36.7144L64.2812 37.3201Z" fill="#D33D3D" fill-opacity="0.22"/>
<path d="M41.0705 111.585C36.0363 111.585 31.7242 115.121 30.7907 120.068C29.4458 127.197 27.6896 137.191 27.1484 143.414C26.0313 156.261 28.957 176.513 30.8951 187.918C31.7412 192.897 36.0568 196.46 41.1076 196.46L170.375 196.459L214.768 196.46C219.819 196.46 224.134 192.897 224.98 187.918C226.918 176.513 229.844 156.261 228.727 143.414C228.185 137.191 226.43 127.197 225.084 120.068C224.151 115.121 219.839 111.585 214.805 111.585H41.0705Z" fill="#D33D3D"/>
<path d="M53.6719 196.461V222.985H85.5V196.461M170.375 196.459L41.1076 196.46M170.375 196.459L214.768 196.46M170.375 196.459V209.722V222.985H202.203V196.461M212.812 100.976H234.031M43.0625 100.976H21.8438M191.594 154.024H191.488M64.2814 154.024H64.1753M138.547 154.024H117.328M41.0705 111.585L64.2812 37.3201L71.5496 36.7144C109.076 33.5872 146.799 33.5872 184.325 36.7144L191.594 37.3201L214.805 111.585M41.0705 111.585C36.0363 111.585 31.7242 115.121 30.7907 120.068C29.4458 127.197 27.6896 137.191 27.1484 143.414C26.0313 156.261 28.957 176.513 30.8951 187.918C31.7412 192.897 36.0568 196.46 41.1076 196.46M41.0705 111.585H214.805M214.805 111.585C219.839 111.585 224.151 115.121 225.084 120.068C226.43 127.197 228.185 137.191 228.727 143.414C229.844 156.261 226.918 176.513 224.98 187.918C224.134 192.897 219.819 196.46 214.768 196.46M41.1076 196.46H214.768" stroke="black" stroke-width="7.275" stroke-linecap="round" stroke-linejoin="round"/>
</svg>
