<svg width="42" height="42" viewBox="0 0 42 42" fill="none" xmlns="http://www.w3.org/2000/svg">
<path d="M17.5 3.5V7" stroke="black" stroke-width="1.2" stroke-linecap="round" stroke-linejoin="round"/>
<path d="M24.5 3.5V7" stroke="black" stroke-width="1.2" stroke-linecap="round" stroke-linejoin="round"/>
<path d="M29.2374 14.5126C28.9093 14.1844 28.4641 14 28 14H7C6.53587 14 6.09075 14.1844 5.76256 14.5126C5.43437 14.8408 5.25 15.2859 5.25 15.75V29.75C5.25 31.6065 5.9875 33.387 7.30025 34.6997C8.61301 36.0125 10.3935 36.75 12.25 36.75H22.75C24.6065 36.75 26.387 36.0125 27.6997 34.6997C29.0125 33.387 29.75 31.6065 29.75 29.75V28V15.75C29.75 15.2859 29.5656 14.8408 29.2374 14.5126Z" fill="#D8D8D8"/>
<path d="M29.75 15.75C29.75 15.2859 29.5656 14.8408 29.2374 14.5126C28.9093 14.1844 28.4641 14 28 14H7M29.75 15.75V29.75M29.75 15.75V28M29.75 29.75C29.75 31.6065 29.0125 33.387 27.6997 34.6997C26.387 36.0125 24.6065 36.75 22.75 36.75H12.25C10.3935 36.75 8.61301 36.0125 7.30025 34.6997C5.9875 33.387 5.25 31.6065 5.25 29.75V15.75C5.25 15.2859 5.43437 14.8408 5.76256 14.5126C6.09075 14.1844 6.53587 14 7 14M29.75 29.75V28M7 14H31.5C33.3565 14 35.137 14.7375 36.4497 16.0503C37.7625 17.363 38.5 19.1435 38.5 21C38.5 22.8565 37.7625 24.637 36.4497 25.9497C35.137 27.2625 33.3565 28 31.5 28H29.75" stroke="black" stroke-width="1.2" stroke-linecap="round" stroke-linejoin="round"/>
<path d="M10.5 3.5V7" stroke="black" stroke-width="1.2" stroke-linecap="round" stroke-linejoin="round"/>
</svg>
