<svg width="42" height="42" viewBox="0 0 42 42" fill="none" xmlns="http://www.w3.org/2000/svg">
<path d="M5.25 19.25V24.5C5.25 24.9641 5.43437 25.4092 5.76256 25.7374C6.09075 26.0656 6.53587 26.25 7 26.25H35C35.4641 26.25 35.9093 26.0656 36.2374 25.7374C36.5656 25.4092 36.75 24.9641 36.75 24.5V19.25" fill="#D6AF6B"/>
<path d="M5.25 19.25V24.5C5.25 24.9641 5.43437 25.4092 5.76256 25.7374C6.09075 26.0656 6.53587 26.25 7 26.25H35C35.4641 26.25 35.9092 26.0656 36.2374 25.7374C36.5656 25.4092 36.75 24.9641 36.75 24.5V19.25" stroke="black" stroke-width="1.2" stroke-linecap="round" stroke-linejoin="round"/>
<path d="M21 33.25H7C6.53587 33.25 6.09075 33.0656 5.76256 32.7374C5.43437 32.4092 5.25 31.9641 5.25 31.5V28C5.25 27.5359 5.43437 27.0908 5.76256 26.7626C6.09075 26.4344 6.53587 26.25 7 26.25H35C35.4641 26.25 35.9093 26.4344 36.2374 26.7626C36.5656 27.0908 36.75 27.5359 36.75 28V31.5C36.75 31.9641 36.5656 32.4092 36.2374 32.7374C35.9093 33.0656 35.4641 33.25 35 33.25H28.2975" fill="#D6AF6B"/>
<path d="M21 33.25H7C6.53587 33.25 6.09075 33.0656 5.76256 32.7374C5.43437 32.4092 5.25 31.9641 5.25 31.5V28C5.25 27.5359 5.43437 27.0908 5.76256 26.7626C6.09075 26.4344 6.53587 26.25 7 26.25H35C35.4641 26.25 35.9092 26.4344 36.2374 26.7626C36.5656 27.0908 36.75 27.5359 36.75 28V31.5C36.75 31.9641 36.5656 32.4092 36.2374 32.7374C35.9092 33.0656 35.4641 33.25 35 33.25H28.2975" stroke="black" stroke-width="1.2" stroke-linecap="round" stroke-linejoin="round"/>
<path d="M5.25 19.25L18.8475 8.67997C19.4625 8.20032 20.2201 7.93982 21 7.93982C21.7799 7.93982 22.5375 8.20032 23.1525 8.67997L36.75 19.25H5.25Z" fill="#F4E4C8" stroke="black" stroke-width="1.2" stroke-linecap="round" stroke-linejoin="round"/>
<path d="M22.6975 34.5975L12.25 26.25H34.125L27.5625 34.125C26.9735 34.8229 26.1351 35.2629 25.2261 35.3512C24.3172 35.4394 23.4098 35.169 22.6975 34.5975Z" fill="#FFF177" stroke="black" stroke-width="1.2" stroke-linecap="round" stroke-linejoin="round"/>
</svg>
